<?xml version="1.0" encoding="UTF-8"?>
<svg id="Layer_1" data-name="Layer 1" xmlns="http://www.w3.org/2000/svg" viewBox="0 0 1080 568.51">
  <defs>
    <style>
      .cls-1 {
        fill: #fff;
        stroke-width: 0px;
      }
    </style>
  </defs>
  <g>
    <g>
      <path class="cls-1" d="m118.8,354.75l-4.83,12.57h-19.34l31.05-73.49h17.41l30.94,73.49h-19.34l-4.94-12.57h-30.94Zm15.47-39.75l-9.45,24.28h18.91l-9.45-24.28Z"/>
      <path class="cls-1" d="m260.19,367.32h-18.16v-36.64l-16.22,25.03v.11h-10.1v-.11l-16.33-25.25.11,36.85h-18.16v-73.06h13.54l25.89,39,25.89-39h13.54v73.06Z"/>
      <path class="cls-1" d="m292,323.37h32.45v15.47h-32.45v12.68h37.07v15.79h-55.22v-73.06h55.22v15.79h-37.07v13.32Z"/>
      <path class="cls-1" d="m359.42,346.15v21.16h-18.16v-73.06h31.91c18.16,0,30.3,9.88,30.3,25.68,0,10.21-5.26,18.27-13.97,22.67l18.8,24.71h-21.81l-15.79-21.16h-11.28Zm13.43-16.33c6.98,0,12.46-3.87,12.46-9.88s-5.48-9.67-12.46-9.67h-13.43v19.55h13.43Z"/>
      <path class="cls-1" d="m436.21,367.32h-18.16v-73.06h18.16v73.06Z"/>
      <path class="cls-1" d="m502.48,337.02h18.69c-2.36,18.91-16.76,31.8-36.64,31.8-22.03,0-38.68-16.01-38.68-38.03s16.65-38.03,38.68-38.03c19.88,0,34.27,12.89,36.64,31.8h-18.69c-1.93-9.13-8.38-14.83-18.05-14.83-11.93,0-20.2,8.92-20.2,21.06s8.27,21.06,20.2,21.06c9.67,0,16.12-5.69,18.05-14.83Z"/>
      <path class="cls-1" d="m545.06,354.75l-4.83,12.57h-19.34l31.05-73.49h17.4l30.94,73.49h-19.34l-4.94-12.57h-30.94Zm15.47-39.75l-9.45,24.28h18.91l-9.45-24.28Z"/>
      <path class="cls-1" d="m675.86,367.32h-13.97l-35.03-40.07v40.07h-18.16v-73.06h13.86l35.24,41.15v-41.15h18.05v73.06Z"/>
      <path class="cls-1" d="m743.93,294.26c22.99,0,39.43,14.93,39.43,36.31s-16.44,36.74-39.43,36.74h-29.33v-73.06h29.33Zm0,56.73c11.93,0,20.95-8.81,20.95-20.41s-9.02-19.98-20.95-19.98h-11.17v40.4h11.17Z"/>
      <path class="cls-1" d="m806.49,354.75l-4.83,12.57h-19.34l31.05-73.49h17.4l30.94,73.49h-19.34l-4.94-12.57h-30.94Zm15.47-39.75l-9.45,24.28h18.91l-9.45-24.28Z"/>
      <path class="cls-1" d="m892.33,310.48v56.83h-18.05v-56.83h-23.31v-16.22h64.68v16.22h-23.31Z"/>
      <path class="cls-1" d="m930.15,354.75l-4.83,12.57h-19.34l31.05-73.49h17.4l30.94,73.49h-19.34l-4.94-12.57h-30.94Zm15.47-39.75l-9.45,24.28h18.91l-9.45-24.28Z"/>
    </g>
    <g>
      <path class="cls-1" d="m323.3,461.62h-8.77l-21.99-25.16v25.16h-11.4v-45.86h8.7l22.12,25.83v-25.83h11.33v45.86Z"/>
      <path class="cls-1" d="m361.87,434.04h20.37v9.71h-20.37v7.96h23.27v9.91h-34.67v-45.86h34.67v9.91h-23.27v8.36Z"/>
      <path class="cls-1" d="m436.32,425.95v35.68h-11.33v-35.68h-14.63v-10.18h40.6v10.18h-14.63Z"/>
      <path class="cls-1" d="m528.31,461.89h-11.06l-9.24-28.12-9.24,28.12h-10.99l-14.84-46.13h12.07l8.57,28.46,9.71-28.46h9.44l9.71,28.46,8.57-28.46h12.07l-14.77,46.13Z"/>
      <path class="cls-1" d="m612.34,438.69c0,13.35-10.45,23.88-24.28,23.88s-24.28-10.52-24.28-23.88,10.45-23.87,24.28-23.87,24.28,10.52,24.28,23.87Zm-11.53,0c0-7.22-5.33-13.29-12.75-13.29s-12.75,6.07-12.75,13.29,5.33,13.29,12.75,13.29,12.75-6.07,12.75-13.29Z"/>
      <path class="cls-1" d="m649.84,448.34v13.29h-11.4v-45.86h20.03c11.4,0,19.02,6.2,19.02,16.12,0,6.41-3.3,11.47-8.77,14.23l11.8,15.51h-13.69l-9.91-13.29h-7.08Zm8.43-10.25c4.38,0,7.82-2.43,7.82-6.21s-3.44-6.07-7.82-6.07h-8.43v12.27h8.43Z"/>
      <path class="cls-1" d="m717.54,452.32v9.31h-11.4v-45.86h11.4v20.84l18.28-20.84h13.49l-17.47,20.1,18.95,25.76h-13.89l-12.81-16.86-6.54,7.55Z"/>
      <path class="cls-1" d="m813.37,429.99h-11.46c-.61-3.44-2.77-5.8-7.42-5.8-3.91,0-6.54,1.62-6.54,4.59,0,2.5,1.82,3.57,5.26,4.32l6.41,1.48c8.36,1.82,13.83,5.19,13.83,13.08,0,9.17-7.55,14.9-19.02,14.9-10.32,0-19.63-4.86-20.7-16.19h11.4c.74,4.05,4.25,6.47,9.64,6.47,4.25,0,6.47-1.55,6.47-4.05,0-1.55-.94-3.17-4.86-3.91l-7.55-1.69c-9.04-1.96-13.29-6.21-13.29-13.49,0-9.17,7.42-14.97,18.21-14.97,7.42,0,18.48,2.9,19.63,15.24Z"/>
    </g>
  </g>
  <g>
    <path class="cls-1" d="m574.27,208.03l7.77-102.08h-39.46l10.52,101.86c3.01-.21,6.08-.33,9.21-.33,4.09,0,8.08.2,11.96.56Z"/>
    <path class="cls-1" d="m497.1,144.68l-33.77,19.49,44.46,57.98c6.13-4.65,14.57-8.46,24.52-11.03l-35.21-66.44Z"/>
    <path class="cls-1" d="m661.21,155.11l-33.02-19.06-36.92,74.82c9.18,2.28,17.15,5.6,23.25,9.66l46.68-65.41Z"/>
    <path class="cls-1" d="m546.58,250.87c0-4.31,1.66-8.24,4.36-11.18,1.66-1.81,3.72-3.24,6.04-4.16,1.89-.75,3.95-1.17,6.1-1.17,3.82,0,7.33,1.3,10.12,3.47,1.64,1.28,3.04,2.86,4.1,4.66,1.45,2.46,2.29,5.32,2.29,8.38h-33.02Z"/>
    <path class="cls-1" d="m573.21,237.84c-2.8-2.17-6.31-3.47-10.12-3.47-2.16,0-4.22.42-6.1,1.17-2.32.92-4.38,2.35-6.04,4.16-2.71,2.94-4.36,6.87-4.36,11.18h33.02c0-3.06-.84-5.92-2.29-8.38-1.06-1.8-2.46-3.38-4.1-4.66Z"/>
  </g>
</svg>